<mxfile host="app.diagrams.net" agent="Mozilla/5.0 (Windows NT 10.0; Win64; x64) AppleWebKit/537.36 (KHTML, like Gecko) Chrome/136.0.0.0 Safari/537.36" version="26.2.13">
  <diagram id="C5RBs43oDa-KdzZeNtuy" name="Page-1">
    <mxGraphModel dx="1253" dy="746" grid="1" gridSize="10" guides="1" tooltips="1" connect="1" arrows="1" fold="1" page="1" pageScale="1" pageWidth="827" pageHeight="1169" math="0" shadow="0">
      <root>
        <mxCell id="WIyWlLk6GJQsqaUBKTNV-0" />
        <mxCell id="WIyWlLk6GJQsqaUBKTNV-1" parent="WIyWlLk6GJQsqaUBKTNV-0" />
        <mxCell id="0a-dLG-q3A9wwTr9J4BR-2" value="" style="edgeStyle=orthogonalEdgeStyle;rounded=0;orthogonalLoop=1;jettySize=auto;html=1;" edge="1" parent="WIyWlLk6GJQsqaUBKTNV-1" source="0a-dLG-q3A9wwTr9J4BR-0" target="0a-dLG-q3A9wwTr9J4BR-1">
          <mxGeometry relative="1" as="geometry" />
        </mxCell>
        <mxCell id="0a-dLG-q3A9wwTr9J4BR-0" value="User Defines the initial input parameters" style="ellipse;whiteSpace=wrap;html=1;" vertex="1" parent="WIyWlLk6GJQsqaUBKTNV-1">
          <mxGeometry x="40" y="40" width="120" height="80" as="geometry" />
        </mxCell>
        <mxCell id="0a-dLG-q3A9wwTr9J4BR-4" value="" style="edgeStyle=orthogonalEdgeStyle;rounded=0;orthogonalLoop=1;jettySize=auto;html=1;" edge="1" parent="WIyWlLk6GJQsqaUBKTNV-1" source="0a-dLG-q3A9wwTr9J4BR-1" target="0a-dLG-q3A9wwTr9J4BR-3">
          <mxGeometry relative="1" as="geometry" />
        </mxCell>
        <mxCell id="0a-dLG-q3A9wwTr9J4BR-1" value="calculates&amp;nbsp;&lt;div&gt;k constant&lt;/div&gt;" style="whiteSpace=wrap;html=1;" vertex="1" parent="WIyWlLk6GJQsqaUBKTNV-1">
          <mxGeometry x="40" y="190" width="120" height="60" as="geometry" />
        </mxCell>
        <mxCell id="0a-dLG-q3A9wwTr9J4BR-6" value="" style="edgeStyle=orthogonalEdgeStyle;rounded=0;orthogonalLoop=1;jettySize=auto;html=1;" edge="1" parent="WIyWlLk6GJQsqaUBKTNV-1" source="0a-dLG-q3A9wwTr9J4BR-3" target="0a-dLG-q3A9wwTr9J4BR-5">
          <mxGeometry relative="1" as="geometry" />
        </mxCell>
        <mxCell id="0a-dLG-q3A9wwTr9J4BR-3" value="calculate&amp;nbsp;&lt;div&gt;reaction rate&lt;/div&gt;" style="whiteSpace=wrap;html=1;" vertex="1" parent="WIyWlLk6GJQsqaUBKTNV-1">
          <mxGeometry x="40" y="320" width="120" height="60" as="geometry" />
        </mxCell>
        <mxCell id="0a-dLG-q3A9wwTr9J4BR-9" style="edgeStyle=orthogonalEdgeStyle;rounded=0;orthogonalLoop=1;jettySize=auto;html=1;entryX=0.5;entryY=0;entryDx=0;entryDy=0;" edge="1" parent="WIyWlLk6GJQsqaUBKTNV-1" source="0a-dLG-q3A9wwTr9J4BR-5" target="0a-dLG-q3A9wwTr9J4BR-8">
          <mxGeometry relative="1" as="geometry" />
        </mxCell>
        <mxCell id="0a-dLG-q3A9wwTr9J4BR-5" value="runs&amp;nbsp;&lt;div&gt;optimization loop&lt;/div&gt;" style="whiteSpace=wrap;html=1;" vertex="1" parent="WIyWlLk6GJQsqaUBKTNV-1">
          <mxGeometry x="40" y="450" width="120" height="60" as="geometry" />
        </mxCell>
        <mxCell id="0a-dLG-q3A9wwTr9J4BR-8" value="Presents outputs to user in graph and tabular form&amp;nbsp;" style="ellipse;whiteSpace=wrap;html=1;" vertex="1" parent="WIyWlLk6GJQsqaUBKTNV-1">
          <mxGeometry x="40" y="584.5" width="120" height="80" as="geometry" />
        </mxCell>
      </root>
    </mxGraphModel>
  </diagram>
</mxfile>
